<mxfile host="app.diagrams.net" modified="2023-09-29T19:51:41.938Z" agent="Mozilla/5.0 (Windows NT 10.0; Win64; x64) AppleWebKit/537.36 (KHTML, like Gecko) Chrome/117.0.0.0 Safari/537.36 Edg/117.0.2045.43" etag="FBmhiqIzwPUs-UBubRwz" version="22.0.0" type="device">
  <diagram name="Page-1" id="Xl0DaK0n5r-McrEWnR_1">
    <mxGraphModel dx="1299" dy="770" grid="1" gridSize="10" guides="1" tooltips="1" connect="1" arrows="1" fold="1" page="1" pageScale="1" pageWidth="850" pageHeight="1100" math="0" shadow="0">
      <root>
        <mxCell id="0" />
        <mxCell id="1" parent="0" />
        <mxCell id="jQ1dbZO5Ab-iZpPSWYLp-14" value="" style="group" parent="1" vertex="1" connectable="0">
          <mxGeometry x="550" y="160" width="120" height="220" as="geometry" />
        </mxCell>
        <mxCell id="jQ1dbZO5Ab-iZpPSWYLp-15" value="" style="rounded=0;whiteSpace=wrap;html=1;" parent="jQ1dbZO5Ab-iZpPSWYLp-14" vertex="1">
          <mxGeometry width="120" height="220" as="geometry" />
        </mxCell>
        <mxCell id="jQ1dbZO5Ab-iZpPSWYLp-16" value="" style="triangle;whiteSpace=wrap;html=1;rotation=-90;" parent="jQ1dbZO5Ab-iZpPSWYLp-14" vertex="1">
          <mxGeometry x="45" y="195" width="30" height="20" as="geometry" />
        </mxCell>
        <mxCell id="jQ1dbZO5Ab-iZpPSWYLp-5" value="" style="group" parent="1" vertex="1" connectable="0">
          <mxGeometry x="230" y="160" width="120" height="220" as="geometry" />
        </mxCell>
        <mxCell id="jQ1dbZO5Ab-iZpPSWYLp-3" value="" style="rounded=0;whiteSpace=wrap;html=1;" parent="jQ1dbZO5Ab-iZpPSWYLp-5" vertex="1">
          <mxGeometry width="120" height="220" as="geometry" />
        </mxCell>
        <mxCell id="jQ1dbZO5Ab-iZpPSWYLp-4" value="" style="triangle;whiteSpace=wrap;html=1;rotation=-90;" parent="jQ1dbZO5Ab-iZpPSWYLp-5" vertex="1">
          <mxGeometry x="45" y="195" width="30" height="20" as="geometry" />
        </mxCell>
        <mxCell id="jQ1dbZO5Ab-iZpPSWYLp-6" value="&lt;font style=&quot;font-size: 24px;&quot;&gt;a&lt;/font&gt;" style="text;html=1;align=center;verticalAlign=middle;resizable=0;points=[];autosize=1;strokeColor=none;fillColor=none;" parent="1" vertex="1">
          <mxGeometry x="70" y="180" width="40" height="40" as="geometry" />
        </mxCell>
        <mxCell id="jQ1dbZO5Ab-iZpPSWYLp-7" value="&lt;font style=&quot;font-size: 24px;&quot;&gt;b&lt;/font&gt;" style="text;strokeColor=none;align=center;fillColor=none;html=1;verticalAlign=middle;whiteSpace=wrap;rounded=0;" parent="1" vertex="1">
          <mxGeometry x="60" y="310" width="60" height="30" as="geometry" />
        </mxCell>
        <mxCell id="jQ1dbZO5Ab-iZpPSWYLp-8" value="&lt;font style=&quot;font-size: 24px;&quot;&gt;c&lt;/font&gt;" style="text;html=1;align=center;verticalAlign=middle;resizable=0;points=[];autosize=1;strokeColor=none;fillColor=none;" parent="1" vertex="1">
          <mxGeometry x="90" y="410" width="40" height="40" as="geometry" />
        </mxCell>
        <mxCell id="jQ1dbZO5Ab-iZpPSWYLp-22" value="x" style="text;html=1;align=center;verticalAlign=middle;resizable=0;points=[];autosize=1;strokeColor=none;fillColor=none;fontSize=24;" parent="1" vertex="1">
          <mxGeometry x="350" y="202.5" width="40" height="40" as="geometry" />
        </mxCell>
        <mxCell id="jQ1dbZO5Ab-iZpPSWYLp-25" value="y" style="text;html=1;align=center;verticalAlign=middle;resizable=0;points=[];autosize=1;strokeColor=none;fillColor=none;fontSize=24;" parent="1" vertex="1">
          <mxGeometry x="700" y="202.5" width="40" height="40" as="geometry" />
        </mxCell>
        <mxCell id="jQ1dbZO5Ab-iZpPSWYLp-1" value="" style="verticalLabelPosition=bottom;shadow=0;dashed=0;align=center;html=1;verticalAlign=top;shape=mxgraph.electrical.logic_gates.logic_gate;operation=and;" parent="1" vertex="1">
          <mxGeometry x="160" y="240" width="60" height="30" as="geometry" />
        </mxCell>
        <mxCell id="fposn8BnfLKPdxXKcd1i-8" style="edgeStyle=orthogonalEdgeStyle;rounded=0;orthogonalLoop=1;jettySize=auto;html=1;" edge="1" parent="1" source="jQ1dbZO5Ab-iZpPSWYLp-19">
          <mxGeometry relative="1" as="geometry">
            <mxPoint x="760" y="255" as="targetPoint" />
          </mxGeometry>
        </mxCell>
        <mxCell id="jQ1dbZO5Ab-iZpPSWYLp-19" value="" style="verticalLabelPosition=bottom;shadow=0;dashed=0;align=center;html=1;verticalAlign=top;shape=mxgraph.electrical.logic_gates.logic_gate;operation=or;fontSize=24;" parent="1" vertex="1">
          <mxGeometry x="440" y="242.5" width="60" height="25" as="geometry" />
        </mxCell>
        <mxCell id="fposn8BnfLKPdxXKcd1i-2" style="edgeStyle=orthogonalEdgeStyle;rounded=0;orthogonalLoop=1;jettySize=auto;html=1;entryX=0;entryY=0.25;entryDx=0;entryDy=0;entryPerimeter=0;" edge="1" parent="1" source="jQ1dbZO5Ab-iZpPSWYLp-6" target="jQ1dbZO5Ab-iZpPSWYLp-1">
          <mxGeometry relative="1" as="geometry">
            <Array as="points">
              <mxPoint x="140" y="200" />
              <mxPoint x="140" y="248" />
            </Array>
          </mxGeometry>
        </mxCell>
        <mxCell id="fposn8BnfLKPdxXKcd1i-3" style="edgeStyle=orthogonalEdgeStyle;rounded=0;orthogonalLoop=1;jettySize=auto;html=1;entryX=0;entryY=0.75;entryDx=0;entryDy=0;entryPerimeter=0;" edge="1" parent="1" source="jQ1dbZO5Ab-iZpPSWYLp-7" target="jQ1dbZO5Ab-iZpPSWYLp-1">
          <mxGeometry relative="1" as="geometry" />
        </mxCell>
        <mxCell id="fposn8BnfLKPdxXKcd1i-6" style="edgeStyle=orthogonalEdgeStyle;rounded=0;orthogonalLoop=1;jettySize=auto;html=1;entryX=0;entryY=0.25;entryDx=0;entryDy=0;entryPerimeter=0;" edge="1" parent="1" source="jQ1dbZO5Ab-iZpPSWYLp-1" target="jQ1dbZO5Ab-iZpPSWYLp-19">
          <mxGeometry relative="1" as="geometry" />
        </mxCell>
        <mxCell id="fposn8BnfLKPdxXKcd1i-7" style="edgeStyle=orthogonalEdgeStyle;rounded=0;orthogonalLoop=1;jettySize=auto;html=1;entryX=0;entryY=0.75;entryDx=0;entryDy=0;entryPerimeter=0;" edge="1" parent="1" source="jQ1dbZO5Ab-iZpPSWYLp-8" target="jQ1dbZO5Ab-iZpPSWYLp-19">
          <mxGeometry relative="1" as="geometry">
            <Array as="points">
              <mxPoint x="400" y="430" />
              <mxPoint x="400" y="261" />
            </Array>
          </mxGeometry>
        </mxCell>
      </root>
    </mxGraphModel>
  </diagram>
</mxfile>
